<svg width="39" height="24" viewBox="0 0 39 24" fill="none" xmlns="http://www.w3.org/2000/svg">
<path d="M0.520508 23.8273V3.92255H3.6896V0.789062H14.2295V3.92255H17.4342V14.4981H14.2295V17.6316H12.6984V19.412H15.8319V23.8273H11.6658V20.765H8.42544V17.6316H4.72223V23.8273H0.520508ZM4.72223 13.1806H13.1969V5.24004H4.72223V13.1806Z" fill="white"/>
<path d="M24.9361 23.8273V20.765H21.767V16.3141H25.9687V19.412H34.4434V14.4981H24.9361V11.4358H21.767V3.92255H24.9361V0.789062H35.476V3.92255H38.6807V8.33792H34.4434V5.24004H25.9687V10.1183H35.476V13.1806H38.6807V20.765H35.476V23.8273H24.9361Z" fill="white"/>
</svg>
