<svg width="231" height="24" viewBox="0 0 231 24" fill="none" xmlns="http://www.w3.org/2000/svg">
<path d="M53.9854 23.3353V3.67976H57.2257V0.439453H67.2671V3.67976H70.543V13.65H67.2671V16.8903H65.7003V19.7745H68.905V23.3353H65.3442V20.1306H62.0683V16.8903H57.5817V23.3353H53.9854ZM57.5817 13.2939H66.911V4.03584H57.5817V13.2939Z" fill="white"/>
<path d="M74.8493 23.3353V6.88447H78.0896V3.67976H81.2943V0.439453H84.9263V3.67976H88.131V6.88447H91.4069V23.3353H87.7749V16.8903H78.4457V23.3353H74.8493ZM78.4457 13.2939H87.7749V7.24055H84.5702V4.03584H81.6504V7.24055H78.4457V13.2939Z" fill="white"/>
<path d="M95.7133 23.3353V0.439453H99.3097V10.1248H102.158V6.88447H105.79V10.1248H108.639V0.439453H112.271V23.3353H108.639V13.65H99.3097V23.3353H95.7133Z" fill="white"/>
<path d="M119.817 23.3353V20.1306H116.577V0.439453H120.174V19.7745H129.503V0.439453H133.135V20.1306H129.859V23.3353H119.817Z" fill="white"/>
<path d="M140.682 23.3353V20.1306H137.441V0.439453H141.038V19.7745H150.367V16.5342H153.999V20.1306H150.723V23.3353H140.682Z" fill="white"/>
<path d="M168.674 23.3353V20.1306H165.434V16.5342H169.03V19.7745H178.359V13.65H168.674V10.4452H165.434V3.67976H168.674V0.439453H178.715V3.67976H181.991V7.24055H178.359V4.03584H169.03V10.1248H178.715V13.2939H181.991V20.1306H178.715V23.3353H168.674Z" fill="white"/>
<path d="M186.298 23.3353V6.88447H189.538V3.67976H192.743V0.439453H196.375V3.67976H199.579V6.88447H202.855V23.3353H199.223V16.8903H189.894V23.3353H186.298ZM189.894 13.2939H199.223V7.24055H196.019V4.03584H193.099V7.24055H189.894V13.2939Z" fill="white"/>
<path d="M210.402 23.3353V20.1306H207.162V0.439453H210.758V19.7745H213.607V13.2939H216.882V3.67976H220.443V13.2939H223.719V19.7745H226.603V0.439453H230.164V20.1306H226.959V23.3353H223.363V20.1306H220.087V13.65H217.239V20.1306H213.963V23.3353H210.402Z" fill="white"/>
<path d="M0.520508 23.8273V3.92255H3.6896V0.789062H14.2295V3.92255H17.4342V14.4981H14.2295V17.6316H12.6984V19.412H15.8319V23.8273H11.6658V20.765H8.42544V17.6316H4.72223V23.8273H0.520508ZM4.72223 13.1806H13.1969V5.24004H4.72223V13.1806Z" fill="white"/>
<path d="M24.9361 23.8273V20.765H21.767V16.3141H25.9687V19.412H34.4434V14.4981H24.9361V11.4358H21.767V3.92255H24.9361V0.789062H35.476V3.92255H38.6807V8.33792H34.4434V5.24004H25.9687V10.1183H35.476V13.1806H38.6807V20.765H35.476V23.8273H24.9361Z" fill="white"/>
</svg>
